# xmcd CD database file
#
# Track frame offsets:
#	150
#	15109
#	28943
#	39558
#	55743
#	71907
#	86545
#	97153
#	107082
#	117182
#	140695
#	153755
#	164785
#	178333
#
# Disc length: 2545 seconds
#
# Revision: 3
# Processed by: cddbd v1.5.2PL0 Copyright (c) Steve Scherf et al.
# Submitted via: CDex 1.60beta1
#
DISCID=c009ef0e
DTITLE=Johnny Hill - Tom Astor - Freddy Quinn - Trucker Weihnacht
DYEAR=1900
DGENRE=
TTITLE0=Tom Astor and Trucker Chor - Ein Bäumchen Mit 10 Bunten Kerzen
TTITLE1=Tom Astor and Jill Morris - n Bethlehem (Oh Little Town Of Bethlehem)
TTITLE2=Freddy Quinn - Ave Maria
TTITLE3=Tom Astor - Frieden Bleibt Ein Weihnachtstraum
TTITLE4=Tom Astor, Jill Morris and der Fredeburger Kinderchor - Süßer Die Glocken Nie Klingen
TTITLE5=Jonny Hill - Oh Du Fröhliche
TTITLE6=Tom Astor - Der Weihnachtsmann, Der Fährt 'nen Großen Truck
TTITLE7=Freddy Quinn - Jingle Bells
TTITLE8=Jonny Hill - Leise Rieselt Der Schnee
TTITLE9=Freddy Quinn - Stille Nacht, Heilige Nacht
TTITLE10=Jonny Hill - Heidschi Bumbeidschi
TTITLE11=Freddy Quinn - Morgen, Kinder, Wird's Was Geben
TTITLE12=Jonny Hill - O Tannenbaum
TTITLE13=Tom Astor and Jill Morris - Weihnachten Zu Hause Sein
EXTD=Karussell 513
EXTT0=
EXTT1=
EXTT2=
EXTT3=
EXTT4=
EXTT5=
EXTT6=
EXTT7=
EXTT8=
EXTT9=
EXTT10=
EXTT11=
EXTT12=
EXTT13=
PLAYORDER=
